<svg width="261" height="48" viewBox="0 0 261 48" fill="none" xmlns="http://www.w3.org/2000/svg">
<g clip-path="url(#clip0_2160_896)">
<path d="M111.765 16.0884C115.601 16.0884 119.436 16.0884 123.271 16.0884C124.625 16.0884 124.58 16.1104 124.648 17.6994C124.693 18.7146 124.49 19.2222 123.271 19.2001C116.661 19.156 110.051 19.178 103.441 19.178C101.997 19.178 101.906 19.2884 101.906 20.8111C101.906 22.2898 102.019 22.4442 103.463 22.4442C109.961 22.4442 116.458 22.4442 122.955 22.4663C123.474 22.4663 124.399 22.5767 124.444 22.8194C124.647 23.5698 124.602 24.4084 124.467 25.1808C124.422 25.3794 123.632 25.5339 123.181 25.5339C117.857 25.556 112.51 25.556 107.186 25.556C105.832 25.556 104.478 25.578 103.125 25.556C102.267 25.5339 101.861 25.9091 101.906 26.7477C101.906 26.9022 101.906 27.0346 101.906 27.1891C101.884 28.778 101.929 28.8222 103.508 28.8442C104.749 28.8442 105.99 28.8442 107.231 28.8442C112.555 28.8442 117.902 28.8884 123.226 28.8222C124.422 28.8001 124.693 29.2415 124.648 30.3008C124.58 31.8898 124.625 31.9118 123.271 31.9118C115.578 31.9118 107.862 31.9118 100.169 31.9118C98.793 31.9118 98.7253 31.8236 98.7253 30.4553C98.7253 26.1518 98.7253 21.8704 98.7253 17.567C98.7253 16.1767 98.793 16.1104 100.282 16.0884C104.117 16.0884 107.93 16.0884 111.765 16.0884Z" fill="white"/>
<path d="M16.4693 31.934C13.6492 31.934 10.8291 31.934 8.03158 31.934C3.56458 31.9119 0 28.3588 0 23.9671C0 19.6416 3.54202 16.0664 7.94134 16.0443C13.6492 16.0002 19.357 16.0002 25.0649 16.0443C29.4867 16.0664 33.0964 19.7299 33.0739 24.0774C33.0513 28.3588 29.4416 31.8898 25.0423 31.934C22.1771 31.9561 19.3345 31.934 16.4693 31.934ZM16.5144 29.4843C19.2893 29.4843 22.0643 29.5505 24.8618 29.4843C28.088 29.3961 30.4343 27.145 30.4794 24.1878C30.5245 21.0099 28.3362 18.5602 25.0423 18.494C19.2893 18.3836 13.5364 18.3836 7.80598 18.5161C4.71517 18.5823 2.41399 21.2526 2.52679 24.2981C2.63959 27.1009 4.96334 29.374 8.07671 29.4843C10.8742 29.5726 13.6943 29.4843 16.5144 29.4843Z" fill="white"/>
<path d="M62.8314 24.0992C62.8314 26.3282 62.8088 28.5792 62.8539 30.8082C62.8765 31.6027 62.6058 31.8896 61.7485 31.9337C59.9436 31.9999 58.3869 31.713 56.7851 30.6537C51.7992 27.3213 46.678 24.1875 41.6018 20.9875C41.2183 20.7448 40.7445 20.6565 40.2933 20.502C40.1805 20.9434 39.9774 21.3848 39.9774 21.8261C39.9549 24.8054 39.9549 27.7627 40.0226 30.742C40.0451 31.713 39.6616 31.9337 38.7592 31.9117C36.7964 31.8675 36.7964 31.9117 36.7964 29.9917C36.7964 25.7986 36.819 21.6275 36.7738 17.4344C36.7513 16.3751 37.1574 16.1323 38.1952 16.022C40.3384 15.7792 41.9177 16.7503 43.5646 17.8096C48.5054 20.9875 53.4913 24.1434 58.4546 27.2772C59.3119 27.8068 59.6278 27.6303 59.6278 26.593C59.6503 23.5034 59.6278 20.4358 59.6278 17.3461C59.6278 16.0882 59.6729 16.1103 61.3198 16.0441C62.3125 15.9999 62.8539 16.1986 62.8088 17.3461C62.7637 19.6192 62.8088 21.8482 62.8314 24.0992Z" fill="white"/>
<path d="M72.4421 20.1711C72.397 20.8553 72.3745 21.2967 72.3745 21.716C72.3745 24.6953 72.3293 27.6525 72.3745 30.6318C72.397 31.5808 72.0812 31.9339 71.0885 31.9118C69.1934 31.8898 69.1934 31.9339 69.1934 30.036C69.1934 25.8208 69.216 21.5836 69.1709 17.3684C69.1483 16.3532 69.5318 16.1325 70.5245 16.0442C72.4647 15.8456 73.9763 16.596 75.533 17.5891C80.6317 20.8773 85.7755 24.0994 90.9193 27.3436C91.0998 27.4539 91.3028 27.5422 91.6864 27.7408C91.7766 27.167 91.912 26.7477 91.912 26.3063C91.9345 23.327 91.912 20.3698 91.912 17.3905C91.912 16.1325 91.9797 16.1105 93.6266 16.0884C94.5741 16.0663 95.1607 16.1767 95.1381 17.3684C95.0705 21.7822 95.093 26.1739 95.1156 30.5877C95.1156 31.5587 94.7772 31.8015 93.7619 31.956C90.987 32.3532 89.1821 30.6539 87.1742 29.396C82.7749 26.6594 78.4207 23.8346 74.0665 21.0539C73.6379 20.767 73.1641 20.5684 72.4421 20.1711Z" fill="white"/>
<path d="M140.102 16.0881C143.959 16.0881 147.84 16.1322 151.698 16.066C153.006 16.0439 153.051 16.6839 153.051 17.6329C153.051 18.6039 152.984 19.2439 151.698 19.1998C148.923 19.1115 146.148 19.1777 143.35 19.1777C141.703 19.1777 141.703 19.1777 141.703 20.7446C141.703 24.0549 141.636 27.3653 141.726 30.6536C141.748 31.8894 141.139 31.9336 140.192 31.9115C138.567 31.8894 138.477 31.8453 138.455 30.6094C138.455 27.277 138.432 23.9225 138.477 20.5901C138.5 19.5529 138.139 19.1556 137.033 19.1777C134.146 19.2218 131.258 19.1556 128.347 19.2218C127.219 19.2439 127.039 18.7584 127.061 17.8315C127.107 16.2205 127.129 16.1101 128.37 16.1101C132.273 16.0881 136.176 16.0881 140.102 16.0881Z" fill="white"/>
<path d="M184.365 24.0993C184.365 21.8703 184.388 19.6193 184.343 17.3903C184.32 16.4634 184.659 16.0662 185.651 16.0883C189.058 16.1324 192.487 16.0883 195.894 16.1103C197.699 16.1324 199.052 16.9931 199.865 18.56C200.699 20.171 200.429 21.7159 199.278 23.0841C198.737 23.7241 198.691 24.1214 199.323 24.7393C200.654 26.0855 200.925 27.7186 200.18 29.4179C199.436 31.1393 197.992 31.9559 196.074 31.9559C192.577 31.9559 189.103 31.9338 185.606 31.9779C184.659 31.9779 184.343 31.6248 184.365 30.7421C184.388 28.5131 184.365 26.3062 184.365 24.0993ZM191.495 17.3683C189.915 17.3683 188.336 17.3903 186.779 17.3462C185.922 17.3241 185.539 17.6331 185.584 18.4938C185.629 19.7076 185.629 20.9214 185.584 22.1131C185.539 23.1062 185.945 23.5034 186.96 23.4814C189.803 23.4372 192.645 23.4814 195.51 23.4593C195.916 23.4593 196.345 23.3931 196.729 23.3048C198.33 22.9076 199.278 21.5172 199.052 19.9062C198.872 18.4717 197.586 17.3903 196.007 17.3683C194.495 17.3462 192.984 17.3683 191.495 17.3683ZM191.517 30.6759C192.262 30.6759 193.029 30.6759 193.773 30.6759C194.563 30.6759 195.352 30.6759 196.142 30.6759C197.969 30.6538 199.233 29.5062 199.301 27.8069C199.368 26.0855 198.195 24.7393 196.368 24.6952C193.142 24.6069 189.915 24.651 186.689 24.651C185.967 24.651 185.561 24.96 185.584 25.7103C185.584 27.0345 185.606 28.3586 185.584 29.6607C185.561 30.4331 185.967 30.6759 186.689 30.6759C188.291 30.6538 189.893 30.6759 191.517 30.6759Z" fill="white"/>
<path d="M219.944 31.6692C219.086 32.0443 218.703 31.8899 218.41 31.2278C217.823 29.8816 217.146 28.5574 216.56 27.2112C216.266 26.5271 215.883 26.1519 215.048 26.174C212.16 26.2181 209.272 26.2181 206.385 26.174C205.505 26.174 205.166 26.5271 205.189 27.3436C205.212 28.5133 205.234 29.683 205.166 30.8526C205.144 31.1836 204.76 31.5147 204.557 31.8457C204.354 31.5147 204.016 31.1836 203.993 30.8526C203.971 26.3064 203.993 21.7602 203.971 17.214C203.971 16.3533 204.264 16.0664 205.144 16.0664C208.483 16.1105 211.822 16.0664 215.161 16.0885C217.462 16.1105 219.492 17.5009 220.169 19.5092C220.869 21.5836 220.192 23.8788 218.319 25.203C217.485 25.7988 217.417 26.2843 217.845 27.123C218.59 28.6016 219.222 30.1243 219.944 31.6692ZM210.942 25.0043C210.942 24.9823 210.942 24.9823 210.942 24.9602C212.454 24.9602 213.943 24.9823 215.454 24.9602C217.575 24.9161 219.199 23.2388 219.177 21.1864C219.154 19.0899 217.597 17.4347 215.454 17.3905C212.386 17.3243 209.295 17.3685 206.227 17.3464C205.46 17.3464 205.166 17.6554 205.166 18.4057C205.189 20.1933 205.212 22.003 205.166 23.7905C205.144 24.7174 205.55 25.0264 206.452 25.0043C207.941 24.9823 209.43 25.0043 210.942 25.0043Z" fill="white"/>
<path d="M166.182 16.0885C168.46 16.0885 170.761 16.0885 173.04 16.0885C173.514 16.0885 174.258 15.9119 174.168 16.7064C174.123 16.9492 173.424 17.3023 173.017 17.3023C168.934 17.3464 164.828 17.3685 160.744 17.3023C159.639 17.2802 159.278 17.6554 159.346 18.6926C159.413 19.7519 159.346 20.8113 159.368 21.8926C159.368 23.4154 159.436 23.4595 160.948 23.4595C164.85 23.4595 168.753 23.4595 172.656 23.4595C172.995 23.4595 173.356 23.4154 173.672 23.5037C173.897 23.5699 174.055 23.8568 174.258 24.0333C174.055 24.2099 173.897 24.4968 173.672 24.5409C173.243 24.6292 172.769 24.6071 172.318 24.6071C168.483 24.6071 164.67 24.6071 160.835 24.6292C159.459 24.6292 159.391 24.7175 159.391 26.0857C159.391 27.6968 159.436 29.3078 159.368 30.9188C159.346 31.2499 158.962 31.5368 158.759 31.8678C158.556 31.5368 158.15 31.2278 158.15 30.8968C158.105 26.2844 158.127 21.6499 158.105 17.0375C158.105 16.2871 158.443 16.0885 159.12 16.0885C161.466 16.1106 163.835 16.1106 166.182 16.0885C166.182 16.1106 166.182 16.1106 166.182 16.0885Z" fill="white"/>
<path d="M240 31.7129C239.256 32.1102 238.849 31.8233 238.556 31.2495C238.128 30.4329 237.676 29.6385 237.27 28.7998C236.932 28.0936 236.435 27.7626 235.601 27.7847C232.6 27.8288 229.6 27.8067 226.599 27.895C226.148 27.9171 225.539 28.2702 225.29 28.6453C224.726 29.4178 224.343 30.3005 223.914 31.1612C223.598 31.8012 223.17 32.0219 222.312 31.6909C222.899 30.5433 223.418 29.484 223.982 28.4247C225.922 24.695 227.84 20.9653 229.825 17.2798C230.073 16.7943 230.615 16.3088 231.134 16.1322C231.968 15.8674 232.262 16.6398 232.578 17.2136C235.014 21.8702 237.473 26.5488 239.91 31.2053C239.955 31.3598 239.955 31.4922 240 31.7129ZM226.328 26.4826C229.712 26.4826 232.758 26.4826 236.074 26.4826C234.428 23.3929 232.916 20.546 231.404 17.6771C231.269 17.6771 231.156 17.6771 231.021 17.6771C229.487 20.546 227.953 23.415 226.328 26.4826Z" fill="white"/>
<path d="M179.741 24.1216C179.741 26.3506 179.763 28.6016 179.718 30.8305C179.718 31.1837 179.402 31.5368 179.222 31.8899C178.996 31.5368 178.59 31.1837 178.59 30.8305C178.545 26.3285 178.567 21.8264 178.567 17.3023C178.567 17.1919 178.545 17.0595 178.59 16.9712C178.77 16.6843 178.974 16.4416 179.177 16.1768C179.357 16.4416 179.695 16.7064 179.718 16.9712C179.763 18.6926 179.763 20.414 179.763 22.1354C179.741 22.7974 179.741 23.4595 179.741 24.1216Z" fill="white"/>
<path d="M22.4479 27.5863C21.5906 27.5863 20.7107 27.6746 19.8534 27.5643C17.9583 27.3656 16.8077 25.9532 16.8303 23.967C16.8528 21.9808 18.0034 20.5243 19.8985 20.3918C21.568 20.2815 23.2826 20.2815 24.9521 20.3918C26.757 20.5243 28.0655 22.1353 28.0655 23.9891C28.0655 25.8649 26.6667 27.4318 24.8167 27.6084C24.0271 27.6746 23.2375 27.6305 22.4479 27.6305C22.4479 27.6084 22.4479 27.6084 22.4479 27.5863Z" fill="white"/>
<path d="M66.0124 23.2165L66.3959 22.5103L67.0727 22.9075L66.6215 23.6358L67.4337 23.6137V24.3861L66.6215 24.364L67.0727 25.0923L66.3959 25.4896L66.0124 24.7834L65.6289 25.4896L64.952 25.0923L65.4032 24.364L64.5911 24.3861V23.6137L65.4032 23.6358L64.952 22.9075L65.6289 22.5103L66.0124 23.2165Z" fill="white"/>
</g>
<defs>
<clipPath id="clip0_2160_896">
<rect width="240" height="16" fill="white" transform="translate(0 16)"/>
</clipPath>
</defs>
</svg>
